# xmcd CD database file
#
# Track frame offsets:
#	150
#	17960
#	36227
#	53771
#	73577
#	97581
#	115155
#	129327
#	152797
#	189628
#	205497
#	211033
#	233299
#	250329
#	275088
#	294899
#
# Disc length: 4254 seconds
#
# Revision: 3
# Processed by: cddbd v1.5.2PL0 Copyright (c) Steve Scherf et al.
# Submitted via: CDex 1.70beta2
#
DISCID=db109c10
DTITLE=Les Freres - Piano Spatial
DYEAR=2011
DGENRE=Easy Listening
TTITLE0=Earth
TTITLE1=空へ
TTITLE2=Follow Me！
TTITLE3=Spharen
TTITLE4=Legendary Standard
TTITLE5=Il Mio Cane
TTITLE6=Squash Hammer
TTITLE7=Boogie Woogie Spatial
TTITLE8=静かな生活 第一楽章：父の書斎／第二楽章：流雲／第三楽章：無言歌
TTITLE9=La Flamme
TTITLE10=Metalloid
TTITLE11=Rainy Day
TTITLE12=月の歌
TTITLE13=Presage
TTITLE14=Glory Moment
TTITLE15=シャクナンガンピ
EXTD=YEAR: 2011
EXTT0=
EXTT1=
EXTT2=
EXTT3=
EXTT4=
EXTT5=
EXTT6=
EXTT7=
EXTT8=
EXTT9=
EXTT10=
EXTT11=
EXTT12=
EXTT13=
EXTT14=
EXTT15=
PLAYORDER=
